<mxfile host="Electron" modified="2024-02-28T06:33:58.069Z" agent="Mozilla/5.0 (X11; Linux x86_64) AppleWebKit/537.36 (KHTML, like Gecko) draw.io/23.1.5 Chrome/120.0.6099.109 Electron/28.1.0 Safari/537.36" etag="BkFGgP04ZkIpFVDHXu2_" version="23.1.5" type="device">
  <diagram name="Page-1" id="okQUsLcCIn6qNMJXYvbM">
    <mxGraphModel dx="4580" dy="2303" grid="1" gridSize="10" guides="1" tooltips="1" connect="1" arrows="1" fold="1" page="1" pageScale="1" pageWidth="850" pageHeight="1100" math="0" shadow="0">
      <root>
        <mxCell id="0" />
        <mxCell id="1" parent="0" />
        <mxCell id="1oog33LeQx-Wt4bM4erJ-16" value="&lt;font style=&quot;font-size: 48px;&quot;&gt;Controller Node&lt;/font&gt;" style="rounded=1;whiteSpace=wrap;html=1;verticalAlign=top;" parent="1" vertex="1">
          <mxGeometry x="-1380" y="-10" width="540" height="420" as="geometry" />
        </mxCell>
        <mxCell id="1oog33LeQx-Wt4bM4erJ-14" value="&lt;font style=&quot;font-size: 36px;&quot;&gt;Controller&lt;/font&gt;" style="rounded=1;whiteSpace=wrap;html=1;verticalAlign=bottom;strokeWidth=2;" parent="1" vertex="1">
          <mxGeometry x="-1320" y="50" width="420" height="330" as="geometry" />
        </mxCell>
        <mxCell id="1oog33LeQx-Wt4bM4erJ-29" value="" style="edgeStyle=orthogonalEdgeStyle;rounded=0;orthogonalLoop=1;jettySize=auto;html=1;" parent="1" source="0VppsKLyr3tMA3nW60oo-5" target="1oog33LeQx-Wt4bM4erJ-25" edge="1">
          <mxGeometry relative="1" as="geometry" />
        </mxCell>
        <mxCell id="0VppsKLyr3tMA3nW60oo-5" value="&lt;font style=&quot;font-size: 48px;&quot;&gt;Host&lt;/font&gt;" style="rounded=1;whiteSpace=wrap;html=1;verticalAlign=top;" parent="1" vertex="1">
          <mxGeometry x="-1230" y="-190" width="240" height="150" as="geometry" />
        </mxCell>
        <mxCell id="0VppsKLyr3tMA3nW60oo-6" value="&lt;font style=&quot;font-size: 24px;&quot;&gt;nvmeof&lt;br&gt;&lt;/font&gt;" style="rounded=0;whiteSpace=wrap;html=1;" parent="1" vertex="1">
          <mxGeometry x="-1170" y="-130" width="120" height="60" as="geometry" />
        </mxCell>
        <mxCell id="CMu3Gh7YvbsZgN_vGiJ3-20" value="&lt;font style=&quot;font-size: 48px;&quot;&gt;Disk Node&lt;/font&gt;" style="rounded=1;whiteSpace=wrap;html=1;verticalAlign=top;" parent="1" vertex="1">
          <mxGeometry x="-1500" y="440" width="360" height="390" as="geometry" />
        </mxCell>
        <mxCell id="CMu3Gh7YvbsZgN_vGiJ3-22" value="&lt;font style=&quot;font-size: 24px;&quot;&gt;Physical&lt;br&gt;Disk&lt;/font&gt;" style="shape=cylinder3;whiteSpace=wrap;html=1;boundedLbl=1;backgroundOutline=1;size=15;" parent="1" vertex="1">
          <mxGeometry x="-1380" y="860" width="120" height="80" as="geometry" />
        </mxCell>
        <mxCell id="K6_qOCfW66pvC1l1tHDu-2" value="" style="edgeStyle=orthogonalEdgeStyle;rounded=0;orthogonalLoop=1;jettySize=auto;html=1;" parent="1" source="CMu3Gh7YvbsZgN_vGiJ3-33" target="CMu3Gh7YvbsZgN_vGiJ3-25" edge="1">
          <mxGeometry relative="1" as="geometry" />
        </mxCell>
        <mxCell id="CMu3Gh7YvbsZgN_vGiJ3-33" value="&lt;font style=&quot;font-size: 24px;&quot;&gt;/dev/nvme0n1&lt;/font&gt;" style="rounded=0;whiteSpace=wrap;html=1;" parent="1" vertex="1">
          <mxGeometry x="-1410" y="770" width="180" height="60" as="geometry" />
        </mxCell>
        <mxCell id="CMu3Gh7YvbsZgN_vGiJ3-21" value="" style="endArrow=classic;html=1;rounded=0;strokeWidth=5;strokeColor=#000000;exitX=0.5;exitY=0;exitDx=0;exitDy=0;exitPerimeter=0;entryX=0.5;entryY=1;entryDx=0;entryDy=0;" parent="1" source="CMu3Gh7YvbsZgN_vGiJ3-22" target="CMu3Gh7YvbsZgN_vGiJ3-33" edge="1">
          <mxGeometry width="50" height="50" relative="1" as="geometry">
            <mxPoint x="-970" y="1170" as="sourcePoint" />
            <mxPoint x="-920" y="1120" as="targetPoint" />
          </mxGeometry>
        </mxCell>
        <mxCell id="1oog33LeQx-Wt4bM4erJ-4" value="&lt;font style=&quot;font-size: 48px;&quot;&gt;Disk Node&lt;/font&gt;" style="rounded=1;whiteSpace=wrap;html=1;verticalAlign=top;" parent="1" vertex="1">
          <mxGeometry x="-1080" y="440" width="360" height="390" as="geometry" />
        </mxCell>
        <mxCell id="1oog33LeQx-Wt4bM4erJ-5" value="&lt;font style=&quot;font-size: 24px;&quot;&gt;Physical&lt;br&gt;Disk&lt;/font&gt;" style="shape=cylinder3;whiteSpace=wrap;html=1;boundedLbl=1;backgroundOutline=1;size=15;" parent="1" vertex="1">
          <mxGeometry x="-960" y="860" width="120" height="80" as="geometry" />
        </mxCell>
        <mxCell id="1oog33LeQx-Wt4bM4erJ-11" value="&lt;font style=&quot;font-size: 24px;&quot;&gt;/dev/nvme0n1&lt;/font&gt;" style="rounded=0;whiteSpace=wrap;html=1;" parent="1" vertex="1">
          <mxGeometry x="-990" y="770" width="180" height="60" as="geometry" />
        </mxCell>
        <mxCell id="1oog33LeQx-Wt4bM4erJ-13" value="" style="endArrow=classic;html=1;rounded=0;strokeWidth=5;strokeColor=#000000;exitX=0.5;exitY=0;exitDx=0;exitDy=0;exitPerimeter=0;entryX=0.5;entryY=1;entryDx=0;entryDy=0;" parent="1" source="1oog33LeQx-Wt4bM4erJ-5" target="1oog33LeQx-Wt4bM4erJ-11" edge="1">
          <mxGeometry width="50" height="50" relative="1" as="geometry">
            <mxPoint x="-550" y="1170" as="sourcePoint" />
            <mxPoint x="-500" y="1120" as="targetPoint" />
          </mxGeometry>
        </mxCell>
        <mxCell id="1oog33LeQx-Wt4bM4erJ-15" value="&lt;font style=&quot;font-size: 24px;&quot;&gt;device mapper&lt;/font&gt;" style="rounded=1;whiteSpace=wrap;html=1;container=0;" parent="1" vertex="1">
          <mxGeometry x="-1170" y="170" width="120" height="60" as="geometry" />
        </mxCell>
        <mxCell id="1oog33LeQx-Wt4bM4erJ-21" value="&lt;font style=&quot;font-size: 24px;&quot;&gt;logical&lt;br style=&quot;border-color: var(--border-color);&quot;&gt;disk&lt;br&gt;&lt;/font&gt;" style="rounded=0;whiteSpace=wrap;html=1;container=0;" parent="1" vertex="1">
          <mxGeometry x="-1080" y="260" width="120" height="60" as="geometry" />
        </mxCell>
        <mxCell id="1oog33LeQx-Wt4bM4erJ-22" value="&lt;font style=&quot;font-size: 24px;&quot;&gt;logical&lt;br&gt;disk&lt;br&gt;&lt;/font&gt;" style="rounded=0;whiteSpace=wrap;html=1;container=0;" parent="1" vertex="1">
          <mxGeometry x="-1260" y="260" width="120" height="60" as="geometry" />
        </mxCell>
        <mxCell id="1oog33LeQx-Wt4bM4erJ-23" value="" style="endArrow=classic;html=1;rounded=0;strokeWidth=5;strokeColor=#808080;exitX=0.5;exitY=0;exitDx=0;exitDy=0;entryX=0.5;entryY=1;entryDx=0;entryDy=0;" parent="1" source="1oog33LeQx-Wt4bM4erJ-22" target="1oog33LeQx-Wt4bM4erJ-15" edge="1">
          <mxGeometry width="50" height="50" relative="1" as="geometry">
            <mxPoint x="-800" y="270" as="sourcePoint" />
            <mxPoint x="-800" y="210" as="targetPoint" />
          </mxGeometry>
        </mxCell>
        <mxCell id="1oog33LeQx-Wt4bM4erJ-24" value="" style="endArrow=classic;html=1;rounded=0;strokeWidth=5;strokeColor=#808080;exitX=0.5;exitY=0;exitDx=0;exitDy=0;entryX=0.5;entryY=1;entryDx=0;entryDy=0;" parent="1" source="1oog33LeQx-Wt4bM4erJ-21" target="1oog33LeQx-Wt4bM4erJ-15" edge="1">
          <mxGeometry width="50" height="50" relative="1" as="geometry">
            <mxPoint x="-890" y="660" as="sourcePoint" />
            <mxPoint x="-890" y="600" as="targetPoint" />
          </mxGeometry>
        </mxCell>
        <mxCell id="1oog33LeQx-Wt4bM4erJ-25" value="&lt;font style=&quot;font-size: 24px;&quot;&gt;nvme&lt;br&gt;target&lt;br&gt;&lt;/font&gt;" style="rounded=0;whiteSpace=wrap;html=1;container=0;" parent="1" vertex="1">
          <mxGeometry x="-1170" y="80" width="120" height="60" as="geometry" />
        </mxCell>
        <mxCell id="1oog33LeQx-Wt4bM4erJ-26" value="" style="endArrow=classic;html=1;rounded=0;strokeWidth=5;strokeColor=#808080;exitX=0.5;exitY=0;exitDx=0;exitDy=0;entryX=0.5;entryY=1;entryDx=0;entryDy=0;" parent="1" source="1oog33LeQx-Wt4bM4erJ-15" target="1oog33LeQx-Wt4bM4erJ-25" edge="1">
          <mxGeometry width="50" height="50" relative="1" as="geometry">
            <mxPoint x="-1010" y="270" as="sourcePoint" />
            <mxPoint x="-1100" y="210" as="targetPoint" />
          </mxGeometry>
        </mxCell>
        <mxCell id="1oog33LeQx-Wt4bM4erJ-27" value="" style="endArrow=classic;html=1;rounded=0;strokeWidth=5;strokeColor=#00c800;exitX=0.5;exitY=0;exitDx=0;exitDy=0;entryX=0.5;entryY=1;entryDx=0;entryDy=0;" parent="1" source="1oog33LeQx-Wt4bM4erJ-25" target="0VppsKLyr3tMA3nW60oo-6" edge="1">
          <mxGeometry width="50" height="50" relative="1" as="geometry">
            <mxPoint x="-780" y="440" as="sourcePoint" />
            <mxPoint x="-1110" y="-50" as="targetPoint" />
          </mxGeometry>
        </mxCell>
        <mxCell id="CMu3Gh7YvbsZgN_vGiJ3-24" value="&lt;font style=&quot;font-size: 36px;&quot;&gt;Logical Disk&lt;/font&gt;" style="rounded=1;whiteSpace=wrap;html=1;verticalAlign=bottom;container=0;strokeWidth=2;" parent="1" vertex="1">
          <mxGeometry x="-1440" y="500" width="240" height="240" as="geometry" />
        </mxCell>
        <mxCell id="CMu3Gh7YvbsZgN_vGiJ3-25" value="&lt;font style=&quot;font-size: 24px;&quot;&gt;linear&lt;/font&gt;" style="rounded=0;whiteSpace=wrap;html=1;container=0;" parent="1" vertex="1">
          <mxGeometry x="-1380" y="620" width="120" height="60" as="geometry" />
        </mxCell>
        <mxCell id="CMu3Gh7YvbsZgN_vGiJ3-26" value="&lt;font style=&quot;font-size: 24px;&quot;&gt;nvme&lt;br&gt;target&lt;br&gt;&lt;/font&gt;" style="rounded=0;whiteSpace=wrap;html=1;container=0;" parent="1" vertex="1">
          <mxGeometry x="-1380" y="530" width="120" height="60" as="geometry" />
        </mxCell>
        <mxCell id="CMu3Gh7YvbsZgN_vGiJ3-27" value="" style="endArrow=classic;html=1;rounded=0;strokeWidth=5;strokeColor=#808080;exitX=0.5;exitY=0;exitDx=0;exitDy=0;entryX=0.5;entryY=1;entryDx=0;entryDy=0;" parent="1" source="CMu3Gh7YvbsZgN_vGiJ3-25" target="CMu3Gh7YvbsZgN_vGiJ3-26" edge="1">
          <mxGeometry width="50" height="50" relative="1" as="geometry">
            <mxPoint x="-1730" y="370" as="sourcePoint" />
            <mxPoint x="-1680" y="320" as="targetPoint" />
          </mxGeometry>
        </mxCell>
        <mxCell id="1oog33LeQx-Wt4bM4erJ-7" value="&lt;font style=&quot;font-size: 36px;&quot;&gt;Logical Disk&lt;/font&gt;" style="rounded=1;whiteSpace=wrap;html=1;verticalAlign=bottom;container=0;strokeWidth=2;" parent="1" vertex="1">
          <mxGeometry x="-1020" y="500" width="240" height="240" as="geometry" />
        </mxCell>
        <mxCell id="1oog33LeQx-Wt4bM4erJ-8" value="&lt;font style=&quot;font-size: 24px;&quot;&gt;linear&lt;/font&gt;" style="rounded=0;whiteSpace=wrap;html=1;container=0;" parent="1" vertex="1">
          <mxGeometry x="-960" y="620" width="120" height="60" as="geometry" />
        </mxCell>
        <mxCell id="1oog33LeQx-Wt4bM4erJ-9" value="&lt;font style=&quot;font-size: 24px;&quot;&gt;nvme&lt;br&gt;target&lt;br&gt;&lt;/font&gt;" style="rounded=0;whiteSpace=wrap;html=1;container=0;" parent="1" vertex="1">
          <mxGeometry x="-960" y="530" width="120" height="60" as="geometry" />
        </mxCell>
        <mxCell id="1oog33LeQx-Wt4bM4erJ-10" value="" style="endArrow=classic;html=1;rounded=0;strokeWidth=5;strokeColor=#808080;exitX=0.5;exitY=0;exitDx=0;exitDy=0;entryX=0.5;entryY=1;entryDx=0;entryDy=0;" parent="1" source="1oog33LeQx-Wt4bM4erJ-8" target="1oog33LeQx-Wt4bM4erJ-9" edge="1">
          <mxGeometry width="50" height="50" relative="1" as="geometry">
            <mxPoint x="-1310" y="370" as="sourcePoint" />
            <mxPoint x="-1260" y="320" as="targetPoint" />
          </mxGeometry>
        </mxCell>
        <mxCell id="CMu3Gh7YvbsZgN_vGiJ3-34" value="" style="endArrow=classic;html=1;rounded=0;strokeWidth=5;strokeColor=#808080;exitX=0.5;exitY=0;exitDx=0;exitDy=0;entryX=0.5;entryY=1;entryDx=0;entryDy=0;" parent="1" source="CMu3Gh7YvbsZgN_vGiJ3-33" target="CMu3Gh7YvbsZgN_vGiJ3-25" edge="1">
          <mxGeometry width="50" height="50" relative="1" as="geometry">
            <mxPoint x="-1870" y="750" as="sourcePoint" />
            <mxPoint x="-1820" y="700" as="targetPoint" />
          </mxGeometry>
        </mxCell>
        <mxCell id="1oog33LeQx-Wt4bM4erJ-12" value="" style="endArrow=classic;html=1;rounded=0;strokeWidth=5;strokeColor=#808080;exitX=0.5;exitY=0;exitDx=0;exitDy=0;entryX=0.5;entryY=1;entryDx=0;entryDy=0;" parent="1" source="1oog33LeQx-Wt4bM4erJ-11" target="1oog33LeQx-Wt4bM4erJ-8" edge="1">
          <mxGeometry width="50" height="50" relative="1" as="geometry">
            <mxPoint x="-1450" y="750" as="sourcePoint" />
            <mxPoint x="-1400" y="700" as="targetPoint" />
          </mxGeometry>
        </mxCell>
        <mxCell id="1oog33LeQx-Wt4bM4erJ-19" value="" style="endArrow=classic;html=1;rounded=0;strokeWidth=5;strokeColor=#0000f0;exitX=0.5;exitY=0;exitDx=0;exitDy=0;entryX=0.5;entryY=1;entryDx=0;entryDy=0;" parent="1" source="CMu3Gh7YvbsZgN_vGiJ3-26" target="1oog33LeQx-Wt4bM4erJ-22" edge="1">
          <mxGeometry width="50" height="50" relative="1" as="geometry">
            <mxPoint x="-1050" y="680" as="sourcePoint" />
            <mxPoint x="-1050" y="500" as="targetPoint" />
          </mxGeometry>
        </mxCell>
        <mxCell id="1oog33LeQx-Wt4bM4erJ-20" value="" style="endArrow=classic;html=1;rounded=0;strokeWidth=5;strokeColor=#0000f0;exitX=0.5;exitY=0;exitDx=0;exitDy=0;entryX=0.5;entryY=1;entryDx=0;entryDy=0;" parent="1" source="1oog33LeQx-Wt4bM4erJ-9" target="1oog33LeQx-Wt4bM4erJ-21" edge="1">
          <mxGeometry width="50" height="50" relative="1" as="geometry">
            <mxPoint x="-1310" y="530" as="sourcePoint" />
            <mxPoint x="-1100" y="320" as="targetPoint" />
          </mxGeometry>
        </mxCell>
      </root>
    </mxGraphModel>
  </diagram>
</mxfile>
